{"title":"Lucifer S02E01 1080p WEB-DL HEVC DD5.1 x265","uid":15877173,"size":760740542,"categoryP":"video","categoryS":"hd___tv_shows","magnet":"?xt=urn:btih:577fb0a637c06e65b45dbffd2019bf7bec5fc0bc&amp;dn=Lucifer+S02E01+1080p+WEB-DL+HEVC+DD5.1+x265&amp;tr=udp%3A%2F%2Ftracker.leechers-paradise.org%3A6969&amp;tr=udp%3A%2F%2Fzer0day.ch%3A1337&amp;tr=udp%3A%2F%2Fopen.demonii.com%3A1337&amp;tr=udp%3A%2F%2Ftracker.coppersurfer.tk%3A6969&amp;tr=udp%3A%2F%2Fexodus.desync.com%3A6969","seeders":8,"leechers":5,"uploader":"nayhtut","files":1,"time":1474536831,"description":"[Screenshots Gallery Link]\r\n\r\n[http://postimg.org/gallery/2kh8opd30]\r\n\r\n\r\nSource: Lucifer S02E01 1080p WEB-DL DD5.1 H264-VietHD (1.72 GB)\r\n\r\n \r\nComplete name: Lucifer.S02E01.1080p.WEB-DL.HEVC.DD5.1.x265.mkv\r\nFormat                                   : Matroska\r\nFormat version                           : Version 4 / Version 2\r\nFile size                                : 725 MiB\r\nDuration                                 : 43mn 55s\r\nOverall bit rate                         : 2 309 Kbps\r\nWriting application                      : Lavf57.25.100\r\nWriting library                          : Lavf57.25.100\r\n\r\nVideo\r\n\r\nID                                       : 1\r\nFormat                                   : V_MPEGH/ISO/HEVC\r\nCodec ID                                 : V_MPEGH/ISO/HEVC\r\nDuration                                 : 43mn 55s\r\nBit rate                                 : 1 879 Kbps\r\nWidth                                    : 1 916 pixels\r\nHeight                                   : 1 076 pixels\r\nDisplay aspect ratio                     : 16:9\r\nFrame rate                               : 25.000 fps\r\nBits/(Pixel*Frame)                       : 0.036\r\nStream size                              : 590 MiB (81%)\r\nWriting library                          : Lavc57.48.101 libx265\r\nLanguage                                 : English\r\nDefault                                  : Yes\r\nForced                                   : No\r\nDURATION                                 : 00:43:55.691000000\r\n\r\nAudio\r\n\r\nID                                       : 2\r\nFormat                                   : AC-3\r\nFormat/Info                              : Audio Coding 3\r\nMode extension                           : CM (complete main)\r\nFormat settings,Endianness              : Big\r\nCodec ID                                 : A_AC3\r\nDuration                                 : 43mn 55s\r\nBit rate mode                            : Constant\r\nBit rate                                 : 384 Kbps\r\nChannel(s)                               : 6 channels\r\nChannel positions                        : Front: L C R, Side: L R, LFE\r\nSampling rate                            : 48.0 KHz\r\nBit depth                                : 16 bits\r\nCompression mode                         : Lossy\r\nStream size                              : 121 MiB (17%)\r\nWriting library                          : Lavc57.24.102 ac3\r\nLanguage                                 : English\r\nDefault                                  : Yes\r\nForced                                   : No\r\nDURATION                                 : 00:43:55.711000000\r\n\r\nText\r\n\r\nID                                       : 3\r\nFormat                                   : ASS\r\nCodec ID                                 : S_TEXT/ASS\r\nLanguage                                 : English\r\nDefault                                  : Yes","torrent":{"xt":"urn:btih:577fb0a637c06e65b45dbffd2019bf7bec5fc0bc","amp;dn":"Lucifer+S02E01+1080p+WEB-DL+HEVC+DD5.1+x265","amp;tr":["udp%3A%2F%2Ftracker.leechers-paradise.org%3A6969","udp%3A%2F%2Fzer0day.ch%3A1337","udp%3A%2F%2Fopen.demonii.com%3A1337","udp%3A%2F%2Ftracker.coppersurfer.tk%3A6969","udp%3A%2F%2Fexodus.desync.com%3A6969"],"infoHash":"577fb0a637c06e65b45dbffd2019bf7bec5fc0bc","infoHashBuffer":{"type":"Buffer","data":[87,127,176,166,55,192,110,101,180,93,191,253,32,25,191,123,236,95,192,188]},"announce":[],"urlList":[]}}